HIERARCHY
ROOT HipCenter
{
    OFFSET 0.0 0.0 -0.0
    CHANNELS 6 Xposition Yposition Zposition Zrotation Xrotation Yrotation
    JOINT Spine
    {
        OFFSET 0.0 0.12087439000606537 0.0
        CHANNELS 3 Zrotation Xrotation Yrotation
        JOINT ShoulderCenter
        {
            OFFSET 0.0 0.3344619572162628 0.0
            CHANNELS 3 Zrotation Xrotation Yrotation
            JOINT LeftShoulder
            {
                OFFSET 0.19092828035354614 0.0 0.0
                CHANNELS 3 Zrotation Xrotation Yrotation
                JOINT LeftElbow
                {
                    OFFSET 0.2974890470504761 0.0 0.0
                    CHANNELS 3 Zrotation Xrotation Yrotation
                    JOINT LeftWrist
                    {
                        OFFSET 0.2960035800933838 0.0 0.0
                        CHANNELS 3 Zrotation Xrotation Yrotation
                        JOINT LeftHand
                        {
                            OFFSET 0.044004518538713455 0.0 0.0
                            CHANNELS 3 Zrotation Xrotation Yrotation
                            End Site
                            {
                                OFFSET 0.017601806670427322 0.0 0.0
                            }
                        }
                    }
                }
            }
            JOINT RightShoulder
            {
                OFFSET -0.19092828035354614 0.0 0.0
                CHANNELS 3 Zrotation Xrotation Yrotation
                JOINT RightElbow
                {
                    OFFSET -0.2974890470504761 0.0 0.0
                    CHANNELS 3 Zrotation Xrotation Yrotation
                    JOINT RightWrist
                    {
                        OFFSET -0.2960035800933838 0.0 0.0
                        CHANNELS 3 Zrotation Xrotation Yrotation
                        JOINT RightHand
                        {
                            OFFSET -0.044004518538713455 0.0 0.0
                            CHANNELS 3 Zrotation Xrotation Yrotation
                            End Site
                            {
                                OFFSET -0.017601806670427322 0.0 0.0
                            }
                        }
                    }
                }
            }
            End Site
            {
                OFFSET 0.0 0.13378478586673737 0.0
            }
        }
    }
    JOINT LeftHip
    {
        OFFSET 0.13974782824516296 0.0 0.0
        CHANNELS 3 Zrotation Xrotation Yrotation
        JOINT LeftKnee
        {
            OFFSET 0.0 -0.40643906593322754 0.0
            CHANNELS 3 Zrotation Xrotation Yrotation
            JOINT LeftAnkle
            {
                OFFSET 0.0 -0.44780057668685913 0.0
                CHANNELS 3 Zrotation Xrotation Yrotation
                JOINT LeftFoot
                {
                    OFFSET 0.0 -0.10069404542446136 0.0
                    CHANNELS 3 Zrotation Xrotation Yrotation
                    End Site
                    {
                        OFFSET 0.0 0.0 0.04027761518955231
                    }
                }
            }
        }
    }
    JOINT RightHip
    {
        OFFSET -0.13974782824516296 0.0 0.0
        CHANNELS 3 Zrotation Xrotation Yrotation
        JOINT RightKnee
        {
            OFFSET 0.0 -0.40643906593322754 0.0
            CHANNELS 3 Zrotation Xrotation Yrotation
            JOINT RightAnkle
            {
                OFFSET 0.0 -0.44780057668685913 0.0
                CHANNELS 3 Zrotation Xrotation Yrotation
                JOINT RightFoot
                {
                    OFFSET 0.0 -0.10069404542446136 0.0
                    CHANNELS 3 Zrotation Xrotation Yrotation
                    End Site
                    {
                        OFFSET 0.0 0.0 0.04027761518955231
                    }
                }
            }
        }
    }
}
MOTION
Frames: 5
Frame Time: 0.03333333333333333
0.7300000190734863 0.29499998688697815 0.22300000488758087 -145.00795926606403 78.40650964857124 -36.17335740025817 -1.7039245389056508 10.482795632662224 -0.30034594537302794 -2.3713337080876403e-07 -2.90380504183364e-06 7.282654436730713 130.26290762948057 -26.88026092144821 -126.12229886580226 -2.9875402992975965e-06 -4.1893997463297506e-06 38.26996102921294 1.6993707183099662e-07 23.535729787548338 26.538203626502412 1.590277340731758e-15 -6.361109362927033e-15 -3.1805546814635164e-15 -121.50692331346106 -10.419556669800858 154.15808043306376 -1.7923876745200405e-06 -7.039364666132151e-06 -53.83102043018065 179.9999979679044 41.55234643710046 143.88099802233114 -6.3611093629270335e-15 -3.1805546814635168e-15 -1.7655625192200634e-31 172.46100197989733 -68.37930592172964 -133.2140056595855 58.25739111651265 32.12901664529579 -100.01900105354295 -131.01374116293965 49.2657997672326 68.69934540800529 1.5902773407317588e-15 3.862168010793889e-32 2.782985346280578e-15 -165.41296984381816 -63.48724313279742 141.05205737324727 -53.74693444895648 27.27452562789214 93.0305937172713 119.39816712766493 57.79406153219188 -52.18262385792192 -3.1805546814635164e-15 2.2069531490250793e-31 -7.95138670365879e-15
0.7310000061988831 0.33000001311302185 0.2070000022649765 -166.21839385182227 63.19308586952902 -13.705809643029696 -1.357644607356041 9.702435852357027 0.10532488694681655 -7.886837243263214e-08 2.4700090133006396e-06 5.683351931632094 123.61970730890873 -24.79207629771852 -133.42008270178846 4.0634370022420355e-06 -6.062275532416042e-06 48.34819685461775 -9.021688011505114e-07 25.37969094467278 26.230830365090544 1.1034765745125397e-32 -7.951386703658791e-16 1.5902773407317582e-15 -116.2216653143519 -9.437385781118294 159.12783197452717 -1.3110500067790638e-06 6.829829514045762e-07 -63.43293039322505 -179.99999793434895 47.955521325207656 142.84032069334856 0.0 -7.951386703658792e-16 0.0 179.93913165928876 -65.23928432543048 -129.48268369463585 52.836281848906566 32.26519392648052 -86.73468506314397 -131.0801244705994 57.34775630490619 70.48794784837226 0.0 0.0 1.590277340731758e-15 -167.65464449155192 -57.52797556827029 135.16005448483403 -47.440327756093765 24.207742464827085 69.8818042063871 144.09897750081748 74.38445220519837 -79.29737872050319 0.0 0.0 0.0
0.7329999804496765 0.36899998784065247 0.21299999952316284 -171.86988151561877 45.38470881701604 -7.406215824155454 -1.6150786950952256 8.384257695277377 0.13362686723761613 -8.107055934947624e-07 5.6285299699462385e-06 5.583143866812291 124.17488852414643 -24.870331485020298 -135.41666006847538 3.7234986566966632e-06 2.730943274677975e-06 57.12409478920231 9.17864229048711e-07 39.54217369178208 28.997714382507873 -5.517382872562698e-33 -3.975693351829395e-16 -1.590277340731758e-15 -116.01744672941064 -11.190608625257797 162.59501848029683 -3.129845278740501e-06 1.9078369606936404e-06 -71.48140159669214 -179.99999665675955 44.03068026014935 140.84921893817477 6.361109362927035e-15 9.939233379573492e-17 -5.517382872562698e-33 -177.67329636413047 -63.05173905492315 -127.28463772696318 47.80183910145126 29.253272460291736 -73.5875069982378 -126.20548120608112 66.0349840848955 64.53842636703062 -3.1805546814635168e-15 -8.827812596100317e-32 3.1805546814635168e-15 -169.81683468723682 -52.562244764664534 131.80156629040886 -42.298471511883356 23.982722905205502 52.734878776608554 -151.1389813792817 79.47838183985999 -148.5002372190528 0.0 0.0 0.0
0.7419999837875366 0.40299999713897705 0.25200000405311584 -176.4236503209219 22.72518257429251 -3.7788964986364277 -0.6159845716142636 10.845355970213967 0.3239908329007886 2.1205386244434208e-07 2.222296158317875e-07 6.077272220776837 123.76806300660536 -25.780816212409576 -136.49011711158207 -2.0348717246310824e-06 6.894669113642225e-07 61.538380105664494 -4.249857654491578e-06 41.18966764422961 31.83494170495432 1.7890620083232284e-15 -6.361109362927035e-15 -2.0872390097104334e-15 -116.08153193860284 -12.839566512383637 164.12984289740078 1.7053932044022773e-06 -1.813905548100609e-07 -75.68373946685112 -179.99999191731484 45.47568050728788 144.04500459400953 -6.3611093629270335e-15 7.951386703658792e-16 4.4139062980501586e-32 -177.28050410358682 -64.22682395304419 -125.69095710074261 46.13451666499104 25.48312135377255 -57.85873146356851 -139.68217194441291 78.59705346661106 78.84165032537533 3.1805546814635164e-15 0.0 0.0 -170.843326031559 -49.869020715273614 128.09518088348125 -40.86132000867158 25.098874988217013 37.70558718561359 -105.22832222986229 68.19186866850836 159.23083162518387 0.0 3.1805546814635168e-15 0.0
0.753000020980835 0.41200000047683716 0.3050000071525574 -179.52649805025814 2.3661651336791083 -3.8201133773632243 0.6073520343514672 12.560600636129772 0.3955908574387513 -1.1831118542695538e-07 -6.360075232741542e-07 7.715154939732036 123.78754805873467 -25.095431562658067 -138.27968291022373 1.961022324458683e-06 1.0680367212992613e-06 67.3855613347257 -9.441409392667658e-07 32.8482150830627 30.280518432107716 -1.5902773407317584e-15 7.951386703658792e-16 1.1034765745125397e-32 -115.14780407556067 -11.780362680892491 163.93205476690767 -4.913390940663322e-06 -4.074863112738078e-06 -79.26099014799074 179.9999957444674 37.24768288826958 146.092032642807 -6.3611093629270335e-15 -1.5902773407317584e-15 -8.827812596100317e-32 177.18128611708474 -61.78725487831581 -128.33957991317197 53.082834813108846 24.511340258419743 -60.67565859029731 -128.7582418220409 81.64933205273202 66.14177089823932 -3.1805546814635168e-15 0.0 0.0 -173.89952891091022 -47.23216915766969 124.5461271498703 -46.23621099608266 30.49480314396543 38.81752035445752 -93.6794688547931 66.42761086141716 142.8937291980912 0.0 0.0 0.0
